<?xml version="1.0" encoding="UTF-8"?>
<svg xmlns="http://www.w3.org/2000/svg" version="1.1" viewBox="0 0 251.7 300.7">
  <defs>
    <style>
      .cls-1 {
        isolation: isolate;
      }

      .cls-2 {
        fill: #fa6d1e;
      }
    </style>
  </defs>
  <!-- Generator: Adobe Illustrator 28.6.0, SVG Export Plug-In . SVG Version: 1.2.0 Build 709)  -->
  <g>
    <g id="Layer_1">
      <g>
        <g>
          <circle class="cls-2" cx="105.9" cy="29.3" r="29.3"/>
          <path class="cls-2" d="M16.6,161.4C7.3,143.9-4.7,121.4,1.9,95.4c1.5-5.8,6.4-25.1,23.1-33.8,11.6-6,24.1-4.4,31.8-3.4,17.2,2.2,18.4,8.4,35.9,11,5.6.8,19.2,2.7,34.1-2.4,13.9-4.8,13.1-10.2,29.6-17.8,8.1-3.7,20-9,35.4-7.8,5.2.4,17.2,2,29.4,10.2,10.8,7.3,16.2,16.2,18.9,20.7,15.9,26.7,14.4,64.4,2,93.4-9.1,21.2-22.8,34.9-34.5,46.6-14.4,14.4-26.2,21.5-30.6,24-10.4,6-33.9,19.5-53.9,11.5-2.6-1-8-3.2-8.4-6.9-.7-5.7,11-10.1,28.3-20,9.2-5.3,28.4-16.4,43.5-31.5s14-15.6,20.5-27.1c-1.8.6-7.8,2.4-13.2-.6-6.2-3.5-7.5-11-8.2-14.9-.6-3.5-.4-6.3-.2-9.6.4-5.9,1.6-10.6,2.6-13.7-.3,2-2.3,18,8.1,26.5,1.2,1,8.2,6.7,14.5,4.1,4.7-2,6.3-7.6,6.8-9.1,0,0,.2-.7.3-1.4,1-5.9-2.7-12.6-4.3-15.5-6.7-11.8-10.1-17.7-13.1-19.6-3.1-1.9-7.1-4.4-11.9-3.7-2.8.4-8.4,2.4-12.6,2.7-.4,0-1.2,0-2.2,0-2.5-.2-3.9-1.2-9.4-1.2s-4.4,0-6.9.6c-5.1,1.2-8.5,3.9-9.2,4.4-3.3,2.7-5.7,6.3-6.1,6.9-1,1.6-1.7,3-3.4,4.4-.4.3-1.8,1.5-4.1,2.3-3.7,1.3-7.6,1-10.9.7-1.7-.2-4-.4-4.2,0,0,.2,0,.4.3.5,3.5.4,5.7,3.7,5,6.5-.7,2.9-4.3,4.4-6.3,3.5-3-1.3-2.4-8.2-3-8.2s-2.7,6.4-.5,12.8c2.6,7.3,9.9,11.1,21.6,17,11.1,5.6,12.7,4.6,14.8,7.7,6.9,10.1-5.3,29.4-8.7,34.7-6.1,9.7-13.2,16.1-17.9,19.6-12.5-6.8-21.2-14.2-26.8-19.6-13.8-13.5-13.8-20.1-13.3-22.9.2-1.2.5-2.9,1.9-4.4,3.4-3.7,8.6-.7,16.5-4,4.1-1.7,6.3-4,6.9-4.6,2.4-2.6,3.5-5.4,4.1-7.1-.4,0-2.6,0-4.1-1.7-.6-.7-1.5-2.3-1-3.2.8-1.4,4,0,4.6-1.1.8-1.3-3.5-3.8-6.2-9.5-1.4-3-.7-3.2-2.5-7.6-.8-1.9-2-4.6-4.3-7.5-1.3-1.7-3.2-4.1-6.5-6.1-2.1-1.3-4.1-2-5.5-2.3.9-1.6,1.3-2.9,1.6-3.8.8-2.9.4-4.5,1.2-8.2.3-1.4.6-2.5.8-3.2-2.7,1.8-4.7,3.7-6.1,5.2-2,2.2-3.2,4.1-3.7,4.8-.7,1.2-1.3,2.3-1.7,3.1-.8-2.3-1.9-5.2-3.2-8.4-1.3-3.3-2-4.8-3.7-5.8-.3-.2-2.1-1.2-4.2-.8-2.4.5-3.8,2.7-6.6,8.5-2.8,5.9-4.7,10.8-5.6,13.2-2.5,6.5-3.4,8.1-4.5,11-4.9,12.7-6.8,32.2-6.8,32.2-1.7,21.2,1.8,28.4-1.2,29.8-5,2.2-19.2-16.4-28.5-33.8h0l.3-.3Z"/>
          <ellipse class="cls-2" cx="150.4" cy="132.7" rx="4.2" ry="5.8"/>
          <ellipse class="cls-2" cx="88.5" cy="141.6" rx="4.2" ry="5.8"/>
          <path class="cls-2" d="M107.1,151.8s0,0,0,0l-8.2-2.1c-.1,0-.2-.2-.2-.3,0-.1.2-.2.3-.2l8.2,2.1c.1,0,.2.2.2.3,0,.1-.1.2-.2.2Z"/>
          <path class="cls-2" d="M107.2,153.6h-8.4c-.1,0-.2-.1-.2-.2s.1-.2.2-.2h8.4c.1,0,.2.1.2.2s-.1.2-.2.2Z"/>
          <path class="cls-2" d="M99.7,157.8c-.1,0-.2,0-.2-.2,0-.1,0-.3.2-.3l8-2.4c.1,0,.3,0,.3.2,0,.1,0,.3-.2.3l-8,2.4s0,0,0,0Z"/>
        </g>
        <g class="cls-1">
          <g class="cls-1">
            <path class="cls-2" d="M22.3,255.2c9.3,0,15.1,4,15.1,13.2s-5.8,13.2-15.1,13.2h-1c-1,0-1.4.5-1.4,1.4v4.3c0,1-.5,1.4-1.4,1.4H7.9c-1,0-1.4-.5-1.4-1.4v-30.7c0-1,.5-1.4,1.4-1.4h14.4ZM22.3,269.5c1,0,1.4-.6,1.4-1.2s-.4-1.1-1.4-1.1h-1.2c-.8,0-1.2.4-1.2,1.2s.4,1.2,1.2,1.2h1.2Z"/>
          </g>
          <g class="cls-1">
            <path class="cls-2" d="M54,282.7c0-1-.6-1.4-1.5-1.4h-.4c-1,0-1.5.5-1.5,1.4l-.3,4.6c0,1-.6,1.4-1.5,1.4h-12.5c-1,0-1.3-.4-1.1-1.4l6.5-30.8c.2-1,.8-1.4,1.7-1.4h18.1c1,0,1.5.4,1.7,1.4l6.5,30.8c.2,1-.2,1.4-1.1,1.4h-12.5c-1,0-1.5-.5-1.5-1.4l-.3-4.6h-.3ZM53,269.8c0-.5-.3-.7-.8-.7s-.7.2-.8.7l-.4,5.5c0,.8.3,1.2,1.1,1.2s1.2-.4,1.1-1.2l-.4-5.5h.2Z"/>
          </g>
          <g class="cls-1">
            <path class="cls-2" d="M87.1,287.3c-.2,1-.8,1.4-1.8,1.4h-12.8c-1,0-1.5-.5-1.7-1.4l-4.6-30.7c0-1,.2-1.4,1.2-1.4h10.1c1,0,1.5.5,1.6,1.4l1.1,7.7c0,.6.3,1.1,1.1,1.1s1-.5,1.1-1.1l1.1-7.7c0-1,.7-1.4,1.6-1.4h9.6c1,0,1.5.5,1.6,1.4l1.1,7.7c0,.6.3,1.1,1.1,1.1s1-.5,1.1-1.1l1.1-7.7c0-1,.7-1.4,1.6-1.4h10.1c1,0,1.3.5,1.2,1.4l-4.6,30.7c0,1-.7,1.4-1.7,1.4h-12.8c-1,0-1.5-.4-1.8-1.4l-1.7-6.4c0-.6-.3-1.1-1.1-1.1s-1.1.4-1.2,1.1l-1.7,6.4h.1Z"/>
          </g>
          <g class="cls-1">
            <path class="cls-2" d="M125.7,288.7c-8.4,0-10.7-3.9-10.7-13.4v-4.4c0-.8-.3-1.2-1-1.4-1.1-.2-1.4-.6-1.4-1.5v-1.9c0-.9.4-1.4,1.4-1.5,2.7-.4,4.2-2.3,4.4-6.6,0-1,.5-1.4,1.5-1.4h7c1,0,1.4.5,1.4,1.4v5.3c0,1,.5,1.4,1.4,1.4h1.8c1,0,1.4.5,1.4,1.4v1.9c0,1-.5,1.4-1.4,1.4h-1.8c-1,0-1.4.5-1.4,1.4v5.3c0,2.4.3,2.9,2.5,2.9h.7c1,0,1.4.5,1.4,1.4v6.7c0,1-.5,1.4-1.4,1.4h-5.9v.2Z"/>
            <path class="cls-2" d="M146.6,268.3c0,.6.3.9.8.9s.8-.3,1.1-.8c1.3-2.2,3.6-4.1,7.4-4.1,6.3,0,8,3.4,8,7.7v15.3c0,1-.5,1.4-1.4,1.4h-10.5c-1,0-1.4-.5-1.4-1.4v-11.5c0-1.2-.5-1.9-1.3-1.9s-1.5,1-1.5,2.2v11.2c0,1-.5,1.4-1.4,1.4h-10.5c-1,0-1.4-.5-1.4-1.4v-21.1c0-1,.5-1.4,1.4-1.4h9.1c1,0,1.5.5,1.6,1.4l.2,2.1h-.2Z"/>
            <path class="cls-2" d="M183.1,278.4h10.8c1,0,1.4.5,1.2,1.4-1.2,6.5-7.4,9.3-14.9,9.3s-15.1-3.9-15.1-12.5,6.6-12.5,14.6-12.5,13.9,3.4,14.6,11.5c0,1-.4,1.4-1.4,1.4h-13.2c-1,0-1.5.6-1.2,1.4.3,1,1,1.4,1.7,1.4s1.2-.2,1.5-.8c.4-.7.8-.9,1.3-.9v.3ZM178.9,273.8c0,.6.3,1.1,1.4,1.1s1.5-.5,1.5-1.1-.4-1.3-1.4-1.3-1.5.6-1.5,1.3Z"/>
            <path class="cls-2" d="M208.7,269.3c0,.6.3.9.8.9s.9-.3,1.1-.8c1-2.8,1.8-4.6,4.4-5,.9-.1,1.4.3,1.4,1.3v9.2c0,1-.5,1.3-1.4,1.2-4.5-.5-5.2.3-5.2,3.7v7.4c0,1-.5,1.4-1.4,1.4h-10.5c-1,0-1.4-.5-1.4-1.4v-21.1c0-1,.5-1.4,1.4-1.4h9.1c1,0,1.5.5,1.6,1.4l.2,3.1h-.1Z"/>
            <path class="cls-2" d="M231.5,272.9c-.8,0-1.4.4-1.4,1.1,0,3.4,15.8-1.2,15.8,7.8s-4.8,7.5-13.6,7.5-13.8-2.7-14.9-8.9c-.1-.9.3-1.4,1.2-1.4h8.9c1.7,0,2.2.5,3.1,1.3.3.3.7.4,1.1.4.8,0,1.5-.4,1.5-1.1,0-3.4-15.8,1.2-15.8-7.8s4.7-7.5,13.5-7.5,13.7,2.7,14.8,8.9c.1.9-.3,1.4-1.2,1.4h-8.8c-1.5,0-2.2-.4-3.1-1.3-.3-.2-.6-.4-1-.4h-.1Z"/>
          </g>
        </g>
      </g>
    </g>
  </g>
</svg>